<?xml version="1.0" encoding="UTF-8" standalone="no"?>
<!-- Generator: Adobe Illustrator 27.5.0, SVG Export Plug-In . SVG Version: 6.00 Build 0)  -->

<svg
   version="1.1"
   x="0px"
   y="0px"
   viewBox="0 0 228.92523 160.50024"
   xml:space="preserve"
   id="svg13386"
   width="228.92523"
   height="160.50024"
   xmlns="http://www.w3.org/2000/svg"
   xmlns:svg="http://www.w3.org/2000/svg"><defs
   id="defs13386"><rect
   x="172.20801"
   y="227.19524"
   width="61.133423"
   height="13.951851"
   id="rect13391" /><rect
   x="169.65047"
   y="227.62148"
   width="186.27451"
   height="53.708439"
   id="rect13390" /><rect
   x="63.51236"
   y="195.65218"
   width="21.312874"
   height="17.476557"
   id="rect13389" /><rect
   x="168.3717"
   y="226.34271"
   width="173.91304"
   height="50.72464"
   id="rect13388" />&#10;	&#10;	&#10;	&#10;	&#10;	&#10;	&#10;	&#10;	&#10;	&#10;	&#10;&#10;		&#10;		&#10;	</defs>&#10;&#10;&#10;&#10;<g
   id="g13368"
   transform="matrix(1.9740549,0,0,1.8056256,-370.29335,-640.58915)">&#10;			&#10;		</g><text
   xml:space="preserve"
   id="text13388"
   style="white-space:pre;shape-inside:url(#rect13388);fill:#000000;fill-opacity:0.195021"
   transform="translate(-142.51902,-172.29291)" /><text
   xml:space="preserve"
   id="text13389"
   style="white-space:pre;shape-inside:url(#rect13389);fill:#000000;fill-opacity:0.195021"
   transform="translate(-142.51902,-172.29291)" /><text
   xml:space="preserve"
   id="text13390"
   style="white-space:pre;shape-inside:url(#rect13390);fill:#ffbea3;fill-opacity:1"
   transform="translate(-142.51902,-172.29291)" /><g
   id="g2"
   transform="translate(-142.94528,-172.29291)"><path
     style="fill:#50435d;fill-opacity:1;stroke-width:1.88796"
     d="m 160.82035,302.08489 h 42.64551 c 1.08573,8.08017 8.52989,14.35833 17.65595,14.35833 h 18.41003 c 9.87225,0 17.87507,7.32001 17.87507,16.34994 0,-9.02993 8.00282,-16.34994 17.87507,-16.34994 h 18.41003 c 9.12606,0 16.57022,-6.27996 17.65595,-14.35833 h 42.64551 c 9.87225,0 17.87704,-7.32001 17.87704,-16.35175 v -66.38021 c 0,-9.02993 -8.00282,-16.35175 -17.87704,-16.35175 h -42.64551 c -1.08573,-8.08017 -8.52989,-14.35833 -17.65595,-14.35833 h -18.41003 c -9.87225,0 -17.87507,-7.32001 -17.87507,-16.34994 0,9.02993 -8.00282,16.34994 -17.87507,16.34994 h -18.41003 c -9.12606,0 -16.57022,6.27996 -17.65595,14.35833 h -42.64551 c -9.87225,0 -17.87507,7.32001 -17.87507,16.35175 v 66.38021 c -0.002,9.03174 8.00282,16.35175 17.87507,16.35175 z"
     id="path13367" /><path
     style="fill:#ab93c9;fill-opacity:1;stroke-width:1.88796"
     d="m 257.40888,320.63227 -0.48956,-0.55974 c -4.26199,-4.86255 -10.5987,-7.65044 -17.3855,-7.65044 h -18.41004 c -6.74732,0 -12.46221,-4.6567 -13.29131,-10.83014 l -0.47377,-3.5318 h -46.53637 c -7.43232,0 -13.47885,-5.53063 -13.47885,-12.32701 v -66.38021 c 0,-6.79818 6.04653,-12.32881 13.47885,-12.32881 h 46.53637 l 0.47377,-3.53181 c 0.8291,-6.17162 6.54399,-10.82653 13.29131,-10.82653 h 18.41004 c 6.7868,0 13.12351,-2.78969 17.3855,-7.65224 l 0.49154,-0.55974 0.48956,0.55974 c 4.26396,4.86255 10.60068,7.65224 17.38748,7.65224 h 18.41003 c 6.7493,0 12.46221,4.65491 13.29132,10.82653 l 0.47574,3.53181 h 46.53637 c 7.43232,0 13.47885,5.53243 13.47885,12.32881 v 66.38021 c 0,6.79818 -6.04653,12.32701 -13.47885,12.32701 h -46.53637 l -0.47574,3.5318 c -0.82911,6.17344 -6.544,10.83014 -13.29132,10.83014 H 275.2879 c -6.7868,0 -13.12352,2.78789 -17.38748,7.65044 z M 160.82035,208.1743 c -6.73942,0 -12.22137,5.01422 -12.22137,11.17863 v 66.38021 c 0,6.1626 5.48195,11.17683 12.22137,11.17683 h 47.64974 l 0.60998,4.54114 c 0.75212,5.60105 5.93006,9.8208 12.04568,9.8208 h 18.41004 c 6.91511,0 13.38607,2.73914 17.87507,7.54029 4.49097,-4.80115 10.96192,-7.54029 17.87704,-7.54029 h 18.41003 c 6.11365,0 11.2916,-4.22155 12.04569,-9.8208 l 0.61195,-4.54114 h 47.64777 c 6.73745,0 12.22137,-5.01423 12.22137,-11.17683 v -66.38021 c 0,-6.16441 -5.48195,-11.17863 -12.22137,-11.17863 h -47.64777 l -0.61195,-4.54115 c -0.75212,-5.59744 -5.93006,-9.81899 -12.04569,-9.81899 H 275.2879 c -6.91314,0 -13.38607,-2.74094 -17.87704,-7.5421 -4.489,4.80116 -10.96193,7.5421 -17.87507,7.5421 h -18.41004 c -6.11364,0 -11.29159,4.22155 -12.04568,9.81899 l -0.60998,4.54115 z"
     id="path13368" /><path
     d="m 194.20448,236.5633 q 0.0638,0.53492 0.0638,0.73555 0,0.35644 -1.64601,2.74156 l -1.99763,2.85303 q -5.17776,7.84581 -9.36475,15.00065 -2.06153,3.5217 -3.10028,5.61688 -0.7511,1.51568 -1.23052,1.51568 -0.81503,0 -0.81503,-1.09218 0,-2.2958 13.93529,-23.40368 0.99081,-1.49339 2.68477,-3.58857 -3.14821,0.84697 -7.4151,3.81145 -0.38353,0.26742 -0.55934,0.26742 -0.5593,0 -0.5593,-1.1813 0,-1.2928 3.61164,-3.07594 2.52499,-1.27047 4.6664,-1.91685 2.63685,-0.78013 5.00202,-0.78013 2.68476,0 3.93126,1.42651 1.39034,1.58251 1.39034,5.21567 0,3.36569 -3.27606,6.75363 -3.78748,3.90062 -10.03596,4.16808 0.39951,1.24821 1.21453,5.97354 0.7511,4.27954 1.03876,4.79217 0.30364,0.51267 1.2465,0.51267 0.19174,0 0.27165,0.1784 -0.0164,0.46809 -0.78306,0.84701 -0.63922,0.31193 -1.07072,0.31193 -0.55931,0 -1.11864,-0.51263 -0.55934,-0.51267 -0.79905,-2.22893 l -0.65523,-4.27954 q -0.39951,-2.45181 -0.83098,-4.21266 -0.17592,-0.66871 -0.62326,-1.73859 -0.62324,-0.86926 -0.62324,-1.04759 0,-0.57951 1.42228,-0.57951 0.52737,0 0.86297,0.57951 2.39711,0 5.833,-1.91685 3.45184,-1.93918 5.11386,-4.25724 2.01358,-2.80844 2.01358,-4.76991 0,-3.23195 -3.97921,-3.23195 -1.56612,0 -3.81944,0.51267 z m 4.63445,24.13923 q -0.79905,0.26742 -3.00439,2.0506 -1.94965,1.56026 -2.95644,1.56026 -0.19174,0 -0.19174,-0.28986 0,-0.40122 0.41552,-0.49038 0.97483,-0.22292 2.7487,-1.67168 1.94965,-1.56026 3.18019,-1.96147 0.73511,-2.47411 3.03635,-5.19338 2.44506,-2.9199 4.17098,-2.9199 1.27846,0 1.27846,1.51568 0,1.98373 -2.70074,4.32412 -1.98162,1.73855 -4.05913,2.71927 -0.22364,0.71326 -0.22364,1.49339 0,1.15905 0.57529,1.51567 0.28765,0.15597 1.0867,0.20048 0.57531,0.0228 0.57531,0.37888 0,0.55721 -1.96563,0.55721 -2.07751,0 -2.07751,-2.51868 0,-0.57951 0.11182,-1.27047 z m 2.10947,-1.24818 q 1.47023,-1.00304 3.10028,-2.71931 2.17338,-2.25122 2.17338,-3.56627 0,-0.53493 -0.35156,-0.53493 -1.03875,0 -2.82861,2.67469 -1.59809,2.42952 -2.09349,4.14582 z m 10.21174,-2.34039 -3.94724,4.14579 q -3.19618,3.05364 -4.68239,3.05364 -0.19174,0 -0.19174,-0.26742 0,-0.4235 0.59127,-0.55725 0.67121,-0.13352 1.55014,-0.80242 1.05474,-0.7801 3.59569,-3.41024 1.85378,-1.87231 3.91531,-4.14578 2.38115,-4.9705 6.55213,-10.788 4.63444,-6.46389 6.21654,-6.46389 0.73512,0 0.73512,1.09218 0,2.80844 -4.73031,8.98257 -2.98843,3.87832 -6.50421,7.51147 -0.81502,0.84697 -2.02956,3.58857 -1.26248,2.80844 -1.26248,3.96749 0,0.55721 0.87893,0.55721 0.20782,0 0.20782,0.35644 0,0.4458 -0.831,0.4458 -1.31044,0 -1.31044,-1.87231 0,-1.82772 1.24651,-5.394 z m 13.48781,-18.54464 q -0.62324,0 -4.93806,6.79822 -4.10707,6.50846 -5.22574,8.93798 10.45146,-11.83559 10.45146,-15.37957 0,-0.35644 -0.28766,-0.35644 z m -6.95164,21.06333 q -4.26689,4.68074 -5.88094,4.68074 -0.19173,0 -0.19173,-0.28986 0,-0.40122 0.38355,-0.49038 1.50219,-0.33438 4.15502,-3.23194 l 2.06153,-2.25123 3.30803,-3.6777 q 2.26927,-2.18435 3.88331,-2.18435 1.19858,0 1.3424,1.67169 0.62326,-0.82468 0.86297,-0.82468 0.52737,0 0.52737,0.6018 0,0.78013 -2.46106,4.76987 -2.44505,3.98978 -2.44505,4.65845 0,0.46809 0.52736,0.49038 0.52737,0.0228 0.52737,0.37888 0,0.4458 -1.0867,0.4458 -1.07072,0 -1.07072,-1.3151 0,-1.04759 0.86297,-2.98673 l -1.98161,2.34035 q -1.45427,1.51568 -2.31722,1.51568 -1.37436,0 -1.37436,-1.93918 0,-1.06988 0.36757,-2.36264 z m 7.94247,-6.53076 q -0.94288,0 -3.89932,3.92291 -2.95647,3.9229 -2.95647,5.23799 0,0.6018 0.41552,0.6018 0.91089,0 3.8993,-3.83374 3.00441,-3.85603 3.00441,-5.19341 0,-0.73555 -0.46344,-0.73555 z m 9.63643,0.33437 -7.31923,8.3139 q -2.3172,2.56327 -3.91528,2.56327 -0.19174,0 -0.19174,-0.26742 0,-0.40121 0.38353,-0.51267 0.55933,-0.1339 1.35837,-0.62409 0.97483,-0.55725 4.50658,-4.45787 1.63006,-1.78314 4.76228,-5.55 1.26251,-1.64939 1.48624,-1.64939 0.78306,0 0.78306,0.95843 0,0.86926 -0.31962,2.22893 l -0.51139,2.16206 q 0.92688,-1.04763 2.84459,-3.00907 2.25329,-2.3181 2.493,-2.3181 0.33561,0 0.33561,0.46809 0,0.37888 -0.81503,1.0253 -0.91092,0.73555 -5.16181,5.17112 -0.92688,4.32412 -0.92688,4.94821 0,0.5795 0.51139,0.66867 0.51138,0.089 0.51138,0.37888 0,0.4458 -0.831,0.4458 -1.63006,0 -1.63006,-1.8946 0,-0.75784 0.30364,-2.60785 l -2.41309,2.40726 -2.0136,2.02831 q -0.25556,0 -0.25556,-0.26742 0,-0.33438 2.25332,-2.7416 l 2.66878,-2.80844 z m 22.9005,4.03437 q 3.10029,-0.37888 4.39474,-0.37888 1.91771,0 1.91771,0.86929 0,0.28987 -1.08671,0.28987 -2.58889,0 -6.1686,0.71326 l -1.67797,2.96448 q -1.66202,2.85302 -1.86976,2.87531 -0.49541,-0.24536 -0.49541,-0.89159 0,-0.66867 2.38113,-4.74762 -1.48622,0.22292 -2.54095,0.22292 -2.73272,0 -2.73272,-2.22893 0,-2.20665 1.90173,-4.19037 1.77387,-1.87231 3.43587,-1.87231 2.30123,0 2.30123,3.12049 0,0.4235 -0.048,0.91388 l 3.1802,-5.30484 q 0.67118,-1.11446 1.10268,-1.11446 0.52737,0 0.52737,0.75784 0,1.13672 -4.52259,8.00181 z m -1.77386,0.17841 q 0.94288,-1.93918 0.94288,-3.38799 0,-1.58251 -1.26251,-1.58251 -1.08667,0 -2.9884,1.56022 -2.04555,1.64943 -2.04555,2.94219 0,1.00301 1.94968,1.00301 1.32638,0 3.4039,-0.53492 z m 24.56252,2.25118 q 5.5134,2.98678 7.55894,2.98678 0.22365,0 0.62324,-0.11146 0.41552,-0.13352 0.60728,-0.13352 0.14373,0 0.14373,0.20047 0,0.71325 -0.97482,1.27047 -0.81503,0.46808 -1.43827,0.46808 -2.10947,0 -7.70275,-3.0536 -3.38794,4.32411 -6.90372,4.32411 -1.42231,0 -2.39713,-0.71325 -1.23052,-0.91388 -1.23052,-2.74161 0,-2.22889 1.93367,-3.67769 1.63005,-1.20364 3.38794,-1.20364 2.14144,0 4.65042,1.42651 l 8.29406,-12.32593 q 3.45184,-5.17112 5.01797,-7.08801 3.7395,-4.56928 6.0727,-4.56928 1.9976,0 2.20537,2.38497 0.83098,-0.4235 1.05471,-0.4235 0.20783,0 0.20783,0.37888 0,0.31193 -0.4954,0.62409 l -0.70318,0.37888 q -0.17592,4.19037 -3.51577,9.69583 -3.34,5.50542 -5.19378,5.50542 -1.32638,0 -1.32638,-1.69398 0,-2.42952 2.493,-6.75363 2.50898,-4.34641 6.42429,-7.19943 0.0319,-0.40121 0.0319,-0.55722 0,-1.2928 -0.84699,-1.2928 -1.53416,0 -5.00201,4.59158 -1.29445,1.7163 -4.37873,6.39701 l -5.19377,7.8681 z m 18.6656,-20.88499 q -3.11627,2.16206 -5.60927,6.33013 -2.493,4.16808 -2.493,6.08496 0,0.69097 0.44746,0.69097 1.05473,0 3.69158,-4.05666 2.6528,-4.07891 3.96323,-9.0494 z M 277.944,260.68035 q -2.31722,-1.20363 -4.61846,-1.20363 -3.43589,0 -3.43589,2.83077 0,2.38494 2.52499,2.38494 2.58887,0 5.52936,-4.01208 z m 19.03317,-2.31806 -3.29208,3.49941 q -2.52496,2.45181 -3.77146,2.45181 -0.19174,0 -0.19174,-0.26743 0,-0.4235 0.31963,-0.51267 0.97482,-0.24536 1.66199,-0.78013 1.19855,-0.91384 3.89932,-3.90061 l 4.21893,-4.83675 q 1.21456,-1.49338 1.48624,-1.49338 0.3995,0 0.87893,0.62409 0.9269,-0.98072 1.64603,-0.98072 1.08668,0 1.08668,1.6271 0,2.42955 -2.78066,6.61992 -2.82861,4.23495 -4.57051,4.23495 -1.63003,0 -1.63003,-2.38494 0,-1.24821 1.03875,-3.90061 z m 5.41747,0.0445 q 0.5913,-0.78009 1.1826,-2.11748 0.6552,-1.53793 0.6552,-2.45181 0,-0.84696 -0.52737,-0.84696 -0.78306,0 -1.5821,1.38192 -0.78306,1.35964 -0.78306,2.47411 0,1.24818 1.05473,1.56022 z m -1.56612,-2.78615 q -3.26008,3.96749 -3.26008,6.46389 0,1.06988 0.73511,1.06988 1.19858,0 3.73953,-4.03436 -1.34239,-0.44576 -1.34239,-2.40723 0,-0.51263 0.12791,-1.09218 z m 6.77588,3.67774 q -2.25329,2.45181 -2.89254,3.03132 -2.10944,1.98376 -3.27606,1.98376 -0.20783,0 -0.20783,-0.26742 0,-0.37889 0.38353,-0.51267 1.69398,-0.55722 4.20297,-3.27653 l 4.47461,-4.9705 q 3.22815,-3.29881 4.87416,-3.29881 1.35837,0 1.32641,2.11751 0.7511,-1.20363 1.07072,-1.20363 0.46344,0 0.46344,0.73555 0,0.69096 -5.36956,9.98557 0.096,0 0.36757,-0.0228 0.22365,-0.0228 0.35156,-0.0228 0.20783,0 0.20783,0.35644 0,0.37888 -0.62326,0.46809 l -0.83101,0.067 q -7.78265,13.46273 -11.44226,13.46273 -1.5022,0 -1.5022,-1.76085 0,-2.80844 2.98841,-6.61993 2.98843,-3.78915 8.32602,-5.55 1.37433,-2.13977 2.22133,-3.90061 -1.63006,1.98372 -2.06153,2.42952 -1.43826,1.47109 -2.42907,1.47109 -1.16662,0 -1.16662,-1.96147 0,-1.24818 0.54335,-2.74156 z m 8.29406,-5.55 q 0,-0.80243 -0.52737,-0.80243 -1.02277,0 -3.94727,3.92291 -2.90852,3.90061 -2.90852,5.46084 0,0.55725 0.30364,0.55725 0.89494,0 3.94727,-3.7669 3.13225,-3.87833 3.13225,-5.37167 z m -5.97684,11.34521 q -3.56372,1.20359 -6.87175,4.99279 -3.30803,3.81145 -3.30803,6.01809 0,0.93613 0.59128,0.93613 1.34239,0 5.00201,-4.99279 2.73271,-3.72228 4.58649,-6.95422 z m 17.99442,-17.56393 q -0.76708,0 -0.76708,-1.09217 0,-0.91384 0.78303,-1.64939 0.70318,-0.66867 1.40633,-0.66867 0.83101,0 0.83101,1.27047 0,0.91384 -0.83101,1.56026 -0.71913,0.5795 -1.42228,0.5795 z m -7.06354,15.44645 q 0,0.6018 0.9269,0.6018 0.20783,0 0.20783,0.35644 0,0.4235 -1.05474,0.4235 -1.19855,0 -1.19855,-1.60484 0,-1.87227 3.56372,-7.82352 l -4.36277,4.9705 q -3.86736,4.41328 -5.60926,4.41328 -0.19174,0 -0.19174,-0.28987 0,-0.40121 0.31962,-0.49038 1.00679,-0.26742 1.8378,-0.91384 1.03876,-0.80242 4.41072,-4.52474 l 4.89013,-5.72833 q 0.3196,-0.15597 0.86295,-0.15597 0.54335,0 0.54335,0.86926 0,0.93617 -2.57291,5.05966 -2.57292,4.10124 -2.57292,4.83679 z m 11.55414,-5.41629 q 4.39473,-5.19341 6.1686,-5.19341 1.13462,0 1.13462,1.49339 0,1.31509 -2.57292,4.76991 -2.57288,3.43252 -2.57288,4.14578 0,0.71326 0.57529,0.78013 0.57531,0.0445 0.57531,0.37888 0,0.4458 -1.1506,0.4458 -1.32642,0 -1.32642,-1.64943 0,-1.38193 1.27847,-3.4994 0.6552,-1.09218 2.36514,-3.36566 1.27847,-1.69401 1.27847,-2.05064 0,-0.28986 -0.28763,-0.28986 -0.91093,0 -3.96326,3.38798 -2.54095,2.80844 -3.77147,4.61387 -1.56612,2.29577 -1.90173,2.29577 -0.25555,0 -0.46344,-0.33438 -0.20782,-0.35643 -0.20782,-0.73554 0,-0.51263 2.20534,-4.14579 l 2.63684,-4.3464 -4.09109,4.63616 -3.02037,3.23194 q -2.30123,2.18435 -3.53175,2.18435 -0.20783,0 -0.20783,-0.26742 0,-0.40122 0.44748,-0.53497 0.60726,-0.15596 1.42228,-0.66867 1.16662,-0.71325 4.76228,-4.76991 3.22814,-3.6554 4.65042,-5.59458 0.23974,-0.33438 0.7511,-0.80243 0.25556,-0.13352 0.54335,-0.13352 0.27165,0 0.54335,0.26743 0.28766,0.24497 0.28766,0.60179 0,0.40121 -2.55693,5.14883 z"
     id="path2"
     style="font-size:12px;font-family:'Vladimir Script';-inkscape-font-specification:'Vladimir Script, Normal';text-align:center;white-space:pre;fill:#ffbea3;stroke-width:3.22104"
     aria-label="Relax &amp; Login" /></g></svg>
